<svg width="44" height="34" viewBox="0 0 44 34" fill="none" xmlns="http://www.w3.org/2000/svg">
<path d="M41.1946 33.4219H2.75151C1.26096 33.4219 0.00587847 32.2059 0.00587847 30.6759V2.90296C0.00570583 1.41223 1.2216 0.156982 2.75151 0.156982H41.1946C42.6851 0.156982 43.9406 1.37305 43.9406 2.90296V30.6759C43.9406 32.2059 42.7245 33.4219 41.1946 33.4219Z" fill="#E3E3E3"/>
<path opacity="0.1" d="M5.49749 33.4219L21.9339 20.2021L22.0516 19.496L5.10526 7.29639L5.0659 32.8335L5.49749 33.4219V33.4219Z" fill="#231F20"/>
<path d="M2.75151 33.4221C1.22159 33.4221 0.00570297 32.206 0.00570297 30.6761V2.86374C0.00570297 1.33399 1.22159 1.05933 2.75151 1.05933C4.28143 1.05933 5.49749 1.37318 5.49749 2.86374V33.4221H2.75151Z" fill="#D54B3D"/>
<path d="M2.75152 1.45156C4.71286 1.45156 5.10526 2.04008 5.10526 2.86374V33.0298H2.75152C1.45707 33.0298 0.39794 31.9707 0.39794 30.6761V2.86374C0.39794 2.00072 0.790173 1.45156 2.75152 1.45156ZM2.75152 1.05933C1.2216 1.05933 0.00587845 1.37318 0.00587845 2.86374V30.6763C0.00587845 32.2062 1.22177 33.4222 2.75169 33.4222H5.4975V2.86374C5.4975 1.33399 4.28143 1.05933 2.75152 1.05933V1.05933Z" fill="#D72B27"/>
<path d="M41.1946 33.4221H38.4486V2.78536C38.4486 1.25544 39.6647 1.05933 41.1946 1.05933C42.7245 1.05933 43.9406 1.25544 43.9406 2.78536V30.7154C43.9406 32.206 42.7245 33.4221 41.1946 33.4221Z" fill="#D54B3D"/>
<path d="M41.1946 1.45156C42.9598 1.45156 43.5482 1.8046 43.5482 2.78536V30.7154C43.5482 32.0099 42.489 33.069 41.1946 33.069H38.8408V2.78536C38.8408 1.76542 39.4294 1.45156 41.1946 1.45156ZM41.1946 1.05933C39.6647 1.05933 38.4486 1.25544 38.4486 2.78536V33.4614H41.1946C42.7245 33.4614 43.9406 32.2452 43.9406 30.7154V2.78536C43.9406 1.25544 42.7245 1.05933 41.1946 1.05933Z" fill="#D72B27"/>
<path d="M29.4264 33.4217L0.235489 4.00418L1.77093 4.62861L22.0908 19.2606L43.9406 3.23853V30.7151C43.9406 32.2057 42.7245 33.4217 41.1946 33.4217H29.4264Z" fill="url(#paint0_linear)"/>
<path d="M21.9339 20.202L1.18241 5.13867C-0.0336548 4.23646 -0.3867 2.51042 0.515507 1.29436C1.41806 0.0782967 3.18311 -0.196198 4.43836 0.706009L21.9732 13.455L39.6253 0.548908C40.8414 -0.353298 42.5674 -0.0786313 43.4696 1.17662C44.3718 2.39268 44.0973 4.11872 42.8419 5.02093L21.9337 20.2019L21.9339 20.202Z" fill="#D54B3D"/>
<path d="M41.1946 0.392234C41.9398 0.392234 42.6459 0.745279 43.1167 1.37282C43.862 2.43213 43.6267 3.88349 42.6067 4.66813L21.9338 19.7315L1.41788 4.82506C0.358747 4.04042 0.0840801 2.54969 0.829359 1.52992C1.26095 0.941396 2.00623 0.549334 2.7907 0.549334C3.30067 0.549334 3.81065 0.70609 4.20288 1.01995L21.6985 13.7296L21.9338 13.8867L22.1692 13.7296L39.7824 0.823829C40.214 0.549334 40.6846 0.392234 41.1946 0.392234V0.392234ZM41.1946 0C40.6454 0 40.0569 0.156928 39.5863 0.509973L21.9338 13.4157L4.399 0.666901C3.92856 0.313856 3.34021 0.156928 2.75168 0.156928C1.88867 0.156928 1.02565 0.549162 0.476487 1.29461C-0.386531 2.5105 -0.0334865 4.23654 1.18258 5.13875L21.934 20.2415L42.8029 5.02118C44.0189 4.11897 44.2936 2.43213 43.4306 1.17687C42.8814 0.392234 42.0576 0 41.1946 0Z" fill="#D72B27"/>
<defs>
<linearGradient id="paint0_linear" x1="0.237237" y1="18.3295" x2="43.9545" y2="18.3295" gradientUnits="userSpaceOnUse">
<stop stop-opacity="0.1"/>
<stop offset="1" stop-opacity="0.2"/>
</linearGradient>
</defs>
</svg>
