<svg width="37" height="53" viewBox="0 0 37 53" fill="none" xmlns="http://www.w3.org/2000/svg">
<path d="M18.5 0C8.27214 0 0 8.2945 0 18.55C0 32.4625 18.5 53 18.5 53C18.5 53 37 32.4625 37 18.55C37 8.2945 28.7279 0 18.5 0ZM18.5 25.175C16.7477 25.175 15.0671 24.477 13.828 23.2346C12.589 21.9922 11.8929 20.3071 11.8929 18.55C11.8929 16.7929 12.589 15.1078 13.828 13.8654C15.0671 12.623 16.7477 11.925 18.5 11.925C20.2523 11.925 21.9329 12.623 23.172 13.8654C24.411 15.1078 25.1071 16.7929 25.1071 18.55C25.1071 20.3071 24.411 21.9922 23.172 23.2346C21.9329 24.477 20.2523 25.175 18.5 25.175V25.175Z" fill="#F1F6F7"/>
</svg>
