<svg width="40" height="40" viewBox="0 0 40 40" fill="none" xmlns="http://www.w3.org/2000/svg">
<path d="M19.5132 9.5034C13.9712 9.5034 9.49852 13.9761 9.49852 19.5181C9.49852 25.06 13.9712 29.5327 19.5132 29.5327C25.0552 29.5327 29.5278 25.06 29.5278 19.5181C29.5278 13.9761 25.0552 9.5034 19.5132 9.5034ZM19.5132 26.0268C15.9292 26.0268 13.0044 23.102 13.0044 19.5181C13.0044 15.9341 15.9292 13.0093 19.5132 13.0093C23.0972 13.0093 26.022 15.9341 26.022 19.5181C26.022 23.102 23.0972 26.0268 19.5132 26.0268ZM29.938 6.75926C28.644 6.75926 27.5991 7.80419 27.5991 9.09813C27.5991 10.3921 28.644 11.437 29.938 11.437C31.2319 11.437 32.2768 10.397 32.2768 9.09813C32.2772 8.79088 32.217 8.48657 32.0996 8.20263C31.9822 7.91869 31.8099 7.6607 31.5927 7.44344C31.3754 7.22618 31.1174 7.05392 30.8335 6.93652C30.5495 6.81911 30.2452 6.75888 29.938 6.75926ZM39.0347 19.5181C39.0347 16.8227 39.0591 14.1518 38.9077 11.4614C38.7563 8.33641 38.0434 5.56298 35.7583 3.27782C33.4683 0.98778 30.6997 0.279773 27.5747 0.128405C24.8794 -0.0229618 22.2085 0.00145236 19.5181 0.00145236C16.8227 0.00145236 14.1518 -0.0229618 11.4614 0.128405C8.33641 0.279773 5.56298 0.992663 3.27782 3.27782C0.98778 5.56786 0.279773 8.33641 0.128405 11.4614C-0.0229618 14.1567 0.00145236 16.8276 0.00145236 19.5181C0.00145236 22.2085 -0.0229618 24.8843 0.128405 27.5747C0.279773 30.6997 0.992663 33.4731 3.27782 35.7583C5.56786 38.0483 8.33641 38.7563 11.4614 38.9077C14.1567 39.0591 16.8276 39.0347 19.5181 39.0347C22.2134 39.0347 24.8843 39.0591 27.5747 38.9077C30.6997 38.7563 33.4731 38.0434 35.7583 35.7583C38.0483 33.4682 38.7563 30.6997 38.9077 27.5747C39.064 24.8843 39.0347 22.2134 39.0347 19.5181ZM34.7378 31.0317C34.3813 31.9204 33.9516 32.5845 33.2632 33.2681C32.5747 33.9565 31.9155 34.3862 31.0268 34.7427C28.4585 35.7632 22.3598 35.5337 19.5132 35.5337C16.6665 35.5337 10.563 35.7632 7.99462 34.7475C7.10594 34.3911 6.44188 33.9614 5.75829 33.2729C5.06981 32.5845 4.64012 31.9253 4.28368 31.0366C3.26805 28.4634 3.49755 22.3647 3.49755 19.5181C3.49755 16.6714 3.26805 10.5679 4.28368 7.9995C4.64012 7.11083 5.06981 6.44676 5.75829 5.76317C6.44676 5.07958 7.10594 4.64501 7.99462 4.28856C10.563 3.27294 16.6665 3.50243 19.5132 3.50243C22.3598 3.50243 28.4634 3.27294 31.0317 4.28856C31.9204 4.64501 32.5845 5.07469 33.2681 5.76317C33.9565 6.45165 34.3862 7.11083 34.7427 7.9995C35.7583 10.5679 35.5288 16.6714 35.5288 19.5181C35.5288 22.3647 35.7583 28.4634 34.7378 31.0317Z" fill="#F1F6F7" fill-opacity="0.76"/>
</svg>
