<svg width="48" height="40" viewBox="0 0 48 40" fill="none" xmlns="http://www.w3.org/2000/svg">
<path d="M48 4.73511C46.2337 5.5382 44.3359 6.08096 42.3439 6.32514C44.3773 5.07542 45.9386 3.09643 46.6738 0.738491C44.7408 1.91474 42.6259 2.74348 40.4205 3.18891C38.6241 1.22646 36.0649 0 33.2323 0C27.7937 0 23.3843 4.52131 23.3843 10.0978C23.3843 10.8893 23.4714 11.6599 23.6392 12.3992C15.4549 11.9779 8.19862 7.95786 3.34144 1.84844C2.49394 3.33984 2.00831 5.07465 2.00831 6.92501C2.00831 10.4285 3.747 13.5191 6.38925 15.3301C4.8254 15.2799 3.29597 14.8467 1.92863 14.0669C1.92806 14.1092 1.92806 14.1515 1.92806 14.194C1.92806 19.0866 5.32256 23.168 9.82744 24.0956C8.37729 24.5 6.85618 24.5592 5.38031 24.2687C6.63337 28.2805 10.2703 31.1998 14.5794 31.2815C11.2091 33.9898 6.96281 35.6042 2.34919 35.6042C1.55419 35.6042 0.770438 35.5564 0 35.4631C4.35806 38.3283 9.53438 40 15.0956 40C33.2094 40 43.1145 24.6128 43.1145 11.2689C43.1145 10.8309 43.1051 10.3954 43.086 9.96241C45.0139 8.53328 46.678 6.76315 48 4.73511" fill="#55ACEE"/>
</svg>
