<svg width="49" height="35" viewBox="0 0 49 35" fill="none" xmlns="http://www.w3.org/2000/svg">
<path d="M19.4469 23.5812L32.6922 16.7289L19.4469 9.81909V23.5812V23.5812Z" fill="white"/>
<path opacity="0.12" d="M19.4469 9.81909L31.0652 17.571L32.6922 16.7289L19.4469 9.81909V9.81909Z" fill="#420000"/>
<path d="M48.4834 7.42656C48.4834 7.42656 48.0051 4.05781 46.5318 2.56484C44.6759 0.6125 42.5904 0.6125 41.6146 0.497656C34.7843 0 24.5096 0 24.5096 0H24.4904C24.4904 0 14.2159 0 7.34713 0.497656C6.39048 0.6125 4.30492 0.6125 2.4299 2.56484C0.975789 4.05781 0.497465 7.42656 0.497465 7.42656C0.497465 7.42656 0 11.4078 0 15.3699V19.0832C0 23.0453 0.497465 27.0074 0.497465 27.0074C0.497465 27.0074 0.975789 30.3762 2.44904 31.8691C4.30492 33.8215 6.75396 33.7641 7.84459 33.9555C11.7669 34.3383 24.4904 34.4531 24.4904 34.4531C24.4904 34.4531 34.7841 34.434 41.6337 33.9363C42.5904 33.8215 44.6759 33.8215 46.551 31.8691C48.0242 30.3762 48.5025 27.0074 48.5025 27.0074C48.5025 27.0074 49 23.0453 49 19.0832V15.3699C48.9809 11.4078 48.4834 7.42656 48.4834 7.42656ZM19.4394 23.5812V9.81914L32.6794 16.7289L19.4392 23.5812H19.4394Z" fill="url(#paint0_linear)"/>
<defs>
<linearGradient id="paint0_linear" x1="24.4902" y1="0" x2="24.4902" y2="34.4635" gradientUnits="userSpaceOnUse">
<stop stop-color="#E52D27"/>
<stop offset="1" stop-color="#BF171D"/>
</linearGradient>
</defs>
</svg>
